<?xml version="1.0" encoding="utf-8"?>
<!-- Generator: Adobe Illustrator 16.0.0, SVG Export Plug-In . SVG Version: 6.00 Build 0)  -->
<!DOCTYPE svg PUBLIC "-//W3C//DTD SVG 1.1//EN" "http://www.w3.org/Graphics/SVG/1.1/DTD/svg11.dtd">
<svg version="1.1" id="Layer_1" xmlns="http://www.w3.org/2000/svg" xmlns:xlink="http://www.w3.org/1999/xlink" x="0px" y="0px"
	 width="841.89px" height="595.28px" viewBox="0 0 841.89 595.28" enable-background="new 0 0 841.89 595.28" xml:space="preserve">
<path fill="#FFFFFF" stroke="#000000" stroke-miterlimit="10" d="M93.97,310.283c153.535-135.354,378.788,23.232,378.788,23.232
	s130.303,112.121,313.131-65.657"/>
<line fill="none" stroke="#000000" stroke-miterlimit="10" x1="-41.384" y1="428.465" x2="882.856" y2="427.454"/>
<line fill="none" stroke="#000000" stroke-miterlimit="10" x1="238.412" y1="49.677" x2="235.381" y2="586.04"/>
<rect x="79.826" y="283.01" fill="none" stroke="#000000" stroke-miterlimit="10" width="40.404" height="144.444"/>
<rect x="120.23" y="255.61" fill="none" stroke="#000000" stroke-miterlimit="10" width="40.404" height="171.844"/>
<rect x="160.634" y="258.32" fill="none" stroke="#000000" stroke-miterlimit="10" width="45.066" height="169.134"/>
<rect x="205.7" y="255.748" fill="none" stroke="#000000" stroke-miterlimit="10" width="45.842" height="171.707"/>
<rect x="251.542" y="259.477" fill="none" stroke="#000000" stroke-miterlimit="10" width="38.916" height="167.978"/>
<rect x="290.458" y="266.096" fill="none" stroke="#000000" stroke-miterlimit="10" width="32.228" height="161.358"/>
<rect x="322.686" y="274.527" fill="none" stroke="#000000" stroke-miterlimit="10" width="28.991" height="152.927"/>
<rect x="351.677" y="289.071" fill="none" stroke="#000000" stroke-miterlimit="10" width="38.452" height="138.383"/>
<rect x="390.128" y="307.193" fill="none" stroke="#000000" stroke-miterlimit="10" width="38.171" height="120.261"/>
<rect x="428.3" y="323.583" fill="none" stroke="#000000" stroke-miterlimit="10" width="29.021" height="103.871"/>
<rect x="457.32" y="343.465" fill="none" stroke="#000000" stroke-miterlimit="10" width="29.963" height="83.989"/>
<rect x="487.283" y="358.263" fill="none" stroke="#000000" stroke-miterlimit="10" width="29.916" height="69.191"/>
<rect x="517.199" y="367.324" fill="none" stroke="#000000" stroke-miterlimit="10" width="32.323" height="60.13"/>
<rect x="549.522" y="368.399" fill="none" stroke="#000000" stroke-miterlimit="10" width="34.344" height="59.055"/>
<rect x="583.866" y="363.88" fill="none" stroke="#000000" stroke-miterlimit="10" width="39.621" height="63.574"/>
<rect x="623.487" y="352.925" fill="none" stroke="#000000" stroke-miterlimit="10" width="36.837" height="74.529"/>
<rect x="660.324" y="336.469" fill="none" stroke="#000000" stroke-miterlimit="10" width="35.257" height="90.985"/>
<rect x="695.581" y="317.858" fill="none" stroke="#000000" stroke-miterlimit="10" width="30.065" height="109.596"/>
<rect x="725.646" y="297.64" fill="none" stroke="#000000" stroke-miterlimit="10" width="26.903" height="129.814"/>
<rect x="752.55" y="271.841" fill="none" stroke="#000000" stroke-miterlimit="10" width="29.2" height="155.613"/>
</svg>
