<?xml version="1.0" encoding="utf-8"?>
<!-- Generator: Adobe Illustrator 16.0.0, SVG Export Plug-In . SVG Version: 6.00 Build 0)  -->
<!DOCTYPE svg PUBLIC "-//W3C//DTD SVG 1.1//EN" "http://www.w3.org/Graphics/SVG/1.1/DTD/svg11.dtd">
<svg version="1.1" id="Layer_1" xmlns="http://www.w3.org/2000/svg" xmlns:xlink="http://www.w3.org/1999/xlink" x="0px" y="0px"
	 width="841.89px" height="595.28px" viewBox="0 0 841.89 595.28" enable-background="new 0 0 841.89 595.28" xml:space="preserve">
<path fill="#FFFFFF" stroke="#000000" stroke-miterlimit="10" d="M93.97,310.283c153.535-135.354,378.788,23.232,378.788,23.232
	s130.303,112.121,313.131-65.657"/>
<line fill="none" stroke="#000000" stroke-miterlimit="10" x1="-41.384" y1="428.465" x2="882.856" y2="427.454"/>
<line fill="none" stroke="#000000" stroke-miterlimit="10" x1="238.412" y1="49.677" x2="235.381" y2="586.04"/>
<polygon fill="none" stroke="#000000" stroke-miterlimit="10" points="96.783,307.854 127.103,286.064 163.591,268.855 
	202.587,258.811 259.662,256.111 319.086,265.208 372.608,281.982 409.146,297.64 447.675,317.858 478.028,337.507 513.771,356.175 
	552.482,366.299 609.841,366.299 648.608,357.106 687.889,340.552 725.65,317.858 752.55,297.64 778.12,275.263 778.12,428.465 
	96.783,428.465 "/>
<path fill="none" stroke="#000000" stroke-miterlimit="10" d="M127.103,286.064v141.39V286.064z"/>
<path fill="none" stroke="#000000" stroke-miterlimit="10" d="M163.591,268.855v159.609V268.855z"/>
<path fill="none" stroke="#000000" stroke-miterlimit="10" d="M202.587,258.811v169.654V258.811z"/>
<path fill="none" stroke="#000000" stroke-miterlimit="10" d="M259.662,256.111v172.354V256.111z"/>
<path fill="none" stroke="#000000" stroke-miterlimit="10" d="M319.086,265.208v162.246V265.208z"/>
<path fill="none" stroke="#000000" stroke-miterlimit="10" d="M372.608,281.982v146.482V281.982z"/>
<path fill="none" stroke="#000000" stroke-miterlimit="10" d="M424.544,305.721v121.733V305.721z"/>
<path fill="none" stroke="#000000" stroke-miterlimit="10" d="M472.758,333.516v94.949V333.516z"/>
<path fill="none" stroke="#000000" stroke-miterlimit="10" d="M513.771,356.175v72.29V356.175z"/>
<path fill="none" stroke="#000000" stroke-miterlimit="10" d="M554.485,366.588v60.866V366.588z"/>
<path fill="none" stroke="#000000" stroke-miterlimit="10" d="M609.841,366.299v62.166V366.299z"/>
<path fill="none" stroke="#000000" stroke-miterlimit="10" d="M653.076,355.224"/>
<polyline fill="none" stroke="#000000" stroke-miterlimit="10" points="653.076,428.465 653.076,355.224 687.889,340.552 
	687.889,428.465 127.103,427.454 "/>
<path fill="none" stroke="#000000" stroke-miterlimit="10" d="M725.65,317.858v110.606V317.858z"/>
<polyline fill="none" stroke="#000000" stroke-miterlimit="10" points="752.55,297.64 752.55,427.454 725.65,428.465 
	725.65,317.858 "/>
<rect x="505.078" y="36.546" fill="none" stroke="#000000" stroke-miterlimit="10" width="252.525" height="110.101"/>
<path fill="none" stroke="#000000" stroke-miterlimit="10" d="M657.604,351.371c0,25.212-37.083,45.65-82.828,45.65
	s-82.828-20.438-82.828-45.65c0-6.303,2.318-12.308,6.51-17.769c12.572-16.385,42.01-27.882,76.318-27.882
	C620.521,305.721,657.604,326.159,657.604,351.371z"/>
<polyline fill="none" stroke="#000000" stroke-miterlimit="10" points="505.078,146.647 542.452,305.721 757.604,150.688 "/>
<path fill="none" stroke="#000000" stroke-miterlimit="10" d="M744.473,115.334c-152.524,50.505-230.701-31.313-230.701-31.313
	L744.473,115.334z"/>
</svg>
